<?xml version="1.0" standalone="no"?><!DOCTYPE svg PUBLIC "-//W3C//DTD SVG 1.1//EN" "http://www.w3.org/Graphics/SVG/1.1/DTD/svg11.dtd"><svg class="icon" width="48px" height="45.34px" viewBox="0 0 1084 1024" version="1.1" xmlns="http://www.w3.org/2000/svg"><path d="M647.85761 827.090322a238.521248 238.521248 0 0 1 25.099216-106.826039 230.736011 230.736011 0 0 0-27.847658-6.647115c-25.196077-4.031857-26.201014-75.588231-26.201015-75.588231s74.583294-75.588231 91.727765-177.389584c44.350423 0 71.568482-107.855192 27.21806-146.151776C739.803314 274.156903 794.287863 0.002761 517.022047 0.002761c-277.181062-1.004937-222.781267 273.149206-220.73507 313.467771-44.350423 38.296584-17.132364 146.151776 27.218059 146.151776 16.16375 101.789245 91.812519 177.389584 91.812519 177.389584s-1.004937 71.568482-26.201014 75.588231C306.348457 725.70063 0.024215 863.788692 0.024215 1016.042737h740.081791a239.090309 239.090309 0 0 1-92.248396-188.879769z" fill="#ffffff" /><path d="M887.855995 1023.997482a193.020595 193.020595 0 0 1-76.544738-15.400966 197.161421 197.161421 0 0 1-105.409441-105.445764 196.059623 196.059623 0 0 1 42.376872-215.686168 202.404046 202.404046 0 0 1 63.020462-41.91678 197.887882 197.887882 0 0 1 153.101582 0 193.722841 193.722841 0 0 1 104.47715 104.47715 197.887882 197.887882 0 0 1 0 153.101583 202.416153 202.416153 0 0 1-41.892565 63.068892 195.066793 195.066793 0 0 1-139.14143 57.777837z m97.248866-229.174121h-71.253683v-66.434827a33.368759 33.368759 0 0 0-8.669097-23.113556 28.453042 28.453042 0 0 0-22.144942-9.686142q-13.475845 0-21.188436 9.686142a35.838726 35.838726 0 0 0-7.700483 23.113556v66.434827h-62.584585a32.872345 32.872345 0 0 0-32.690729 32.690729q0 13.487953 9.686142 20.219822t23.113556 6.743976h62.584585v68.372055a35.838726 35.838726 0 0 0 7.700483 23.113557q7.700483 9.686142 21.188436 9.686142a28.46515 28.46515 0 0 0 22.144942-9.686142 33.356652 33.356652 0 0 0 8.669097-23.113557v-68.323624h71.144714v1.925121a35.826618 35.826618 0 0 0 23.113556-7.700483q9.686142-7.700483 9.686142-21.188436a32.872345 32.872345 0 0 0-32.690729-32.690729z" fill="#ffffff" /></svg>