<?xml version="1.0" standalone="no"?><!DOCTYPE svg PUBLIC "-//W3C//DTD SVG 1.1//EN" "http://www.w3.org/Graphics/SVG/1.1/DTD/svg11.dtd"><svg t="1533187711089" class="icon" style="" viewBox="0 0 1024 1024" version="1.1" xmlns="http://www.w3.org/2000/svg" p-id="1385" xmlns:xlink="http://www.w3.org/1999/xlink" width="200" height="200"><defs><style type="text/css"></style></defs><path d="M956.68129 556.462654 556.489772 556.462654l0 400.190495c0 24.565489-19.898189 44.462654-44.49233 44.462654-24.563442 0-44.434002-19.897166-44.434002-44.462654L467.56344 556.462654 67.371922 556.462654c-24.564465 0-44.490284-19.898189-44.490284-44.462654 0-24.578792 19.924795-44.462654 44.490284-44.462654l400.191518 0L467.56344 67.345828c0-24.578792 19.87056-44.462654 44.434002-44.462654 24.593118 0 44.49233 19.884886 44.49233 44.462654l0 400.191518 400.190495 0c24.565489 0 44.436048 19.884886 44.436048 44.462654C1001.116315 536.564465 981.245755 556.462654 956.68129 556.462654z" p-id="1386" fill="#ffffff"></path></svg>