<?xml version="1.0" standalone="no"?><!DOCTYPE svg PUBLIC "-//W3C//DTD SVG 1.1//EN" "http://www.w3.org/Graphics/SVG/1.1/DTD/svg11.dtd"><svg t="1533204693264" class="icon" style="" viewBox="0 0 1024 1024" version="1.1" xmlns="http://www.w3.org/2000/svg" p-id="19467" xmlns:xlink="http://www.w3.org/1999/xlink" width="48" height="48"><defs><style type="text/css"></style></defs><path d="M853.333333 846.506667c6.826667 6.826667 10.24 17.066667 10.24 23.893333 0 10.24-3.413333 20.48-10.24 27.306667-6.826667 6.826667-17.066667 10.24-27.306666 10.24-3.413333 0-10.24 0-13.653334-3.413334-6.826667-3.413333-10.24-6.826667-17.066666-10.24l-204.8-204.8c-47.786667 34.133333-105.813333 51.2-163.84 51.2h-17.066667c-13.653333 0-23.893333-3.413333-34.133333-6.826666-34.133333-3.413333-78.506667-20.48-116.053334-51.2-23.893333-13.653333-54.613333-44.373333-78.506666-85.333334-20.48-30.72-30.72-68.266667-34.133334-109.226666 3.413333 23.893333-3.413333-3.413333-3.413333-30.72v-3.413334c0-17.066667 0-34.133333 3.413333-51.2 6.826667-44.373333 27.306667-85.333333 51.2-119.466666 13.653333-23.893333 54.613333-61.44 105.813334-85.333334-27.306667 10.24 0-3.413333 30.72-13.653333 27.306667-10.24 58.026667-17.066667 92.16-17.066667 13.653333 0 27.306667 0 37.546666 3.413334 34.133333 3.413333 64.853333 13.653333 92.16 30.72 47.786667 23.893333 88.746667 61.44 112.64 109.226666-10.24-20.48 10.24 10.24 23.893334 47.786667 13.653333 37.546667 20.48 75.093333 17.066666 112.64-3.413333 64.853333-23.893333 119.466667-64.853333 170.666667l208.213333 204.8z m-180.906666-378.88v-13.653334c0-30.72-6.826667-61.44-17.066667-88.746666-13.653333-34.133333-34.133333-64.853333-61.44-88.746667 20.48 20.48 6.826667 3.413333-10.24-6.826667-30.72-23.893333-68.266667-44.373333-109.226667-51.2 27.306667 3.413333-10.24-3.413333-44.373333-3.413333-10.24 0-20.48 0-30.72 3.413333H389.12c-44.373333 6.826667-85.333333 27.306667-116.053333 51.2-23.893333 13.653333-54.613333 54.613333-71.68 102.4-3.413333-6.826667-13.653333 30.72-13.653334 71.68-3.413333 40.96 6.826667 78.506667 23.893334 116.053334 20.48 44.373333 54.613333 81.92 95.573333 105.813333 0 6.826667 44.373333 23.893333 92.16 30.72 0 3.413333 37.546667 3.413333 71.68 0 30.72-6.826667 58.026667-17.066667 81.92-30.72 10.24 0 40.96-23.893333 64.853333-54.613333-10.24 17.066667 17.066667-17.066667 34.133334-54.613334-23.893333 44.373333-13.653333 27.306667-6.826667 10.24 17.066667-30.72 23.893333-64.853333 27.306667-105.813333v6.826667z" fill="#8a8a8a" p-id="19468"></path></svg>