<?xml version="1.0" standalone="no"?><!DOCTYPE svg PUBLIC "-//W3C//DTD SVG 1.1//EN" "http://www.w3.org/Graphics/SVG/1.1/DTD/svg11.dtd"><svg t="1533206265079" class="icon" style="" viewBox="0 0 1024 1024" version="1.1" xmlns="http://www.w3.org/2000/svg" p-id="22374" xmlns:xlink="http://www.w3.org/1999/xlink" width="48" height="48"><defs><style type="text/css"></style></defs><path d="M362.9 213.9c0-82.4 66.9-149.2 149.1-149.2 82.3 0 149.1 66.9 149.1 149.2V489c0 82.4-66.9 149.2-149.1 149.2-82.3 0-149.1-66.9-149.1-149.2V213.9z m183.5 653.6v-88.2C681.6 762.4 786.3 647 786.3 507.1v-86.9c0-15.8-12.8-28.7-28.7-28.7-15.8 0-28.7 12.8-28.7 28.7v86.9c0 119.8-97.1 217-216.9 217-119.8 0-216.9-97.2-216.9-217v-86.9c0-15.8-12.8-28.7-28.7-28.7-15.8 0-28.7 12.8-28.7 28.7v86.9c0 139.8 104.6 255.2 239.9 272.2v88.2h-91.9c-25.2 0-45.7 20.5-45.7 45.9 0 25.5 20.5 45.9 45.7 45.9h252.7c25.2 0 45.7-20.5 45.7-45.9 0-25.5-20.5-45.9-45.7-45.9h-92z" fill="#c0c0c1" p-id="22375"></path></svg>