<?xml version="1.0" standalone="no"?><!DOCTYPE svg PUBLIC "-//W3C//DTD SVG 1.1//EN" "http://www.w3.org/Graphics/SVG/1.1/DTD/svg11.dtd"><svg class="icon" width="48px" height="48.00px" viewBox="0 0 1024 1024" version="1.1" xmlns="http://www.w3.org/2000/svg"><path d="M362.353 64.226H63.98v298.372h298.372V64.226z m-59.674 238.697H123.655V123.9H302.68v179.023zM63.98 959.341h298.372V660.97H63.98V959.34z m59.675-238.697H302.68v179.023H123.655V720.644zM243.004 541.62v59.675H362.352V541.62h-59.674zM660.724 899.667h59.674v59.674h-59.674v-59.674zM481.702 64.226h59.674V123.9h-59.674V64.226zM63.98 541.62h59.674v59.675H63.98V541.62zM899.423 601.295v59.675h-59.675v59.674h59.675V839.993h59.674V541.621H839.748v59.674zM839.748 422.272v59.675H959.097v-59.675h-59.674zM780.073 601.295h59.675v59.674h-59.675v-59.674z" fill="#bfbfbf" /><path d="M780.073 422.272H720.4V541.621h-59.674V422.272H481.702V302.924h-59.674v119.348H63.98v59.675h59.674v59.674H243.003v-59.674H362.352v59.674h59.674v238.696H481.7V660.969h59.674v59.674h59.674v59.674h59.674v-59.674h59.674v59.674h-59.674v59.674h59.674v59.674H839.745v59.674h59.674V839.991H780.07v-59.674h59.675v-59.674H780.07v-59.674H601.048v-59.674H780.07V541.62h59.675v-59.674H780.07v-59.675zM601.05 541.621h-59.674v59.674h-59.674V481.947h119.35v59.674z" fill="#bfbfbf" /><path d="M601.05 839.993h59.674v59.674H601.05v-59.674zM660.724 64.226v298.372h298.373V64.226H660.724z m238.699 238.697H720.399V123.9h179.024v179.023zM541.376 362.597h59.674V183.574H481.702V302.923h59.674zM422.027 123.9H481.7v59.674h-59.674V123.9zM541.376 839.993v-59.675h-59.674v59.675h-59.675v119.348H601.05v-59.674h-59.674z" fill="#bfbfbf" /></svg>