<?xml version="1.0" standalone="no"?><!DOCTYPE svg PUBLIC "-//W3C//DTD SVG 1.1//EN" "http://www.w3.org/Graphics/SVG/1.1/DTD/svg11.dtd"><svg class="icon" width="48px" height="48.00px" viewBox="0 0 1024 1024" version="1.1" xmlns="http://www.w3.org/2000/svg"><path d="M957.400674 359.191732l-0.956791-7.568373c-0.124843-1.293459-0.294712-2.582825-0.518816-3.869121-0.171915-1.00591-0.350994-2.016937-0.531096-3.032056-1.455141-10.006911-3.64604-19.526729-6.145977-27.415396-9.603729-34.903951-26.550703-66.296939-50.358945-93.331665l-0.048095 0c-0.315178-0.375553-0.626263-0.748037-0.940418-1.11438-0.520863-0.635473-0.988514-1.201361-1.353834-1.590218-45.919842-52.858882-113.065102-83.244936-184.161347-83.244936-82.48155 0-155.64078 40.777729-200.387913 103.238292-44.753273-62.461587-117.931946-103.239316-200.462614-103.239316-68.9033 0-134.155443 28.605501-182.058452 81.054037-0.410346 0.413416-0.820692 0.828878-1.216711 1.261737-2.610454 2.831488-5.030573 5.65479-7.350408 8.523117-21.678742 25.90295-37.158295 55.510268-45.430702 85.938278-3.792373 11.419074-6.375198 23.162536-7.828292 35.992749l-1.130753 9.079796c-0.188288 1.632173-0.349971 3.239787-0.496304 4.839215-0.6191 6.448876-0.874927 13.097296-0.874927 19.775392 0 8.220219 0.367367 16.47523 1.231037 24.355711C84.937996 634.754788 347.743494 885.97339 511.999488 885.97339c164.309206 0 427.238524-251.387447 445.476911-476.30401 0.968048-8.553817 1.372254-17.068747 1.372254-25.178449C958.853769 376.177592 958.447517 368.350322 957.400674 359.191732zM512.003582 793.97407c-108.612697 0-337.091388-210.154347-353.815281-391.657144-0.050142-0.908696-0.12075-1.818415-0.226151-2.734274-0.202615-1.744737-0.349971-3.527336-0.469698-5.321192-0.222057-3.321652-0.335644-6.606465-0.335644-9.769504 0-3.504824 0.134053-6.986111 0.441045-10.444886 0.101307-1.154289 0.224104-2.309602 0.36532-3.476171l0.937348-8.18031c1.160429-6.606465 2.460028-13.353123 3.904936-18.451234 2.583848-7.625678 5.408173-15.293311 7.746428-20.983917 3.308349-6.900154 6.862291-13.839193 11.138688-20.741393l-0.342808-0.209778c2.029216-3.118014 4.198625-6.227842 6.55223-9.338692l0.084934 0.025583c0.732687-1.00898 1.466398-1.991354 2.199085-2.963495 2.127454-2.692319 4.369517-5.386684 6.758937-8.093329 28.40698-32.806173 70.211085-51.569516 114.598015-51.569516 85.142146 0 154.463977 69.282946 154.463977 154.424068 0 25.421996 20.578688 45.99966 46.001707 45.99966 25.419949 0 46.000684-20.577664 46.000684-45.99966 0-85.141122 69.322855-154.424068 154.38416-154.424068 42.214451 0 82.052784 17.006326 112.730481 49.326429 0.944512 1.168616 1.955538 2.300392 3.036149 3.39533 0.36532 0.472767 0.744967 0.941442 1.153266 1.415232 14.792914 18.868743 25.39539 38.568411 31.331589 57.997925 1.433652 5.010107 2.579755 10.197246 3.41068 14.290471 0.200568 1.24127 0.38988 2.487657 0.542352 3.747347 0.155543 1.438769 0.390903 2.916423 0.766456 4.322445l0.686638 5.644557c0.484024 4.882194 0.805342 9.44307 0.805342 14.284331 0 1.215688-0.020466 2.448772-0.056282 3.692089-0.00307 0.070608-0.005117 0.141216-0.00614 0.210801-0.034792 1.11438-0.089028 2.238994-0.150426 3.369747-0.014326 0.225127-0.021489 0.447185-0.036839 0.672312-0.150426 2.52245-0.363274 5.074575-0.63752 7.629771-0.049119 0.462534-0.075725 0.921999-0.109494 1.38351C850.908268 582.148663 621.04402 793.97407 512.003582 793.97407z" fill="#13227a" /></svg>