<?xml version="1.0" standalone="no"?><!DOCTYPE svg PUBLIC "-//W3C//DTD SVG 1.1//EN" "http://www.w3.org/Graphics/SVG/1.1/DTD/svg11.dtd"><svg class="icon" width="48px" height="31.31px" viewBox="0 0 1570 1024" version="1.1" xmlns="http://www.w3.org/2000/svg"><path d="M273.066667 724.650667L38.7072 557.124267a27.306667 27.306667 0 0 1 0.4096-44.6464L273.066667 350.890667V68.266667a68.266667 68.266667 0 0 1 68.266666-68.266667h1160.533334a68.266667 68.266667 0 0 1 68.266666 68.266667v887.466666a68.266667 68.266667 0 0 1-68.266666 68.266667H341.333333a68.266667 68.266667 0 0 1-68.266666-68.266667v-231.082666zM546.133333 409.6a68.266667 68.266667 0 0 0-68.266666 68.266667v68.266666a68.266667 68.266667 0 0 0 68.266666 68.266667h68.266667a68.266667 68.266667 0 0 0 68.266667-68.266667V477.866667a68.266667 68.266667 0 0 0-68.266667-68.266667H546.133333z m341.333334 0a68.266667 68.266667 0 0 0-68.266667 68.266667v68.266666a68.266667 68.266667 0 0 0 68.266667 68.266667h68.266666a68.266667 68.266667 0 0 0 68.266667-68.266667V477.866667a68.266667 68.266667 0 0 0-68.266667-68.266667h-68.266666z m341.333333 0a68.266667 68.266667 0 0 0-68.266667 68.266667v68.266666a68.266667 68.266667 0 0 0 68.266667 68.266667h68.266667a68.266667 68.266667 0 0 0 68.266666-68.266667V477.866667a68.266667 68.266667 0 0 0-68.266666-68.266667h-68.266667z" fill="#8a8a8a" /></svg>