<?xml version="1.0" standalone="no"?><!DOCTYPE svg PUBLIC "-//W3C//DTD SVG 1.1//EN" "http://www.w3.org/Graphics/SVG/1.1/DTD/svg11.dtd"><svg t="1533285339086" class="icon" style="" viewBox="0 0 1024 1024" version="1.1" xmlns="http://www.w3.org/2000/svg" p-id="1626" xmlns:xlink="http://www.w3.org/1999/xlink" width="48" height="48"><defs><style type="text/css"></style></defs><path d="M0 0h1024v1024H0z" fill="#FFCD00" p-id="1627"></path><path d="M551.340154 634.499965c0-8.525506 0.794751-16.978762 2.384252-25.143019 0.65025-3.395752-1.083751-6.719255-4.190504-8.164256-25.721019-12.138009-41.18253-28.972271-41.18253-45.951033 0-8.164256 3.323502-15.750512 10.404008-23.914768 2.817752-2.673252 5.491004-5.491004 8.164256-8.525506 23.481267-26.80477 36.992027-65.097298 36.992027-104.907077 0-78.608058-50.864037-142.404854-113.432583-142.404854s-113.432583 63.796797-113.432583 142.404854c0 44.578283 16.039512 85.544063 43.928032 112.348832v0.1445c5.852254 5.635504 12.788259 14.666761 12.788259 25.648769 0 19.218514-21.458266 38.437028-56.066041 49.924787-0.1445 0.1445-0.289 0.1445-0.50575 0.1445-4.913004 1.228251-9.320257 2.528752-15.895012 4.551753-72.105553 23.264517-116.972836 64.230297-122.463839 110.687081-1.517251 12.788259 8.814506 23.987018 21.675016 23.987018h366.307768c6.791505 0 9.898257-8.092006 5.129754-12.86051-25.143018-24.926268-40.60453-59.678544-40.60453-97.971071z" fill="#FFFFFF" p-id="1628"></path><path d="M705.521767 508.929373c-66.181048 0-119.790588 53.609539-119.790588 119.790587 0 66.181048 53.609539 119.790588 119.790588 119.790588 66.181048 0 119.790588-53.609539 119.790587-119.790588 0-66.181048-53.681789-119.790588-119.790587-119.790587z m67.626049 133.734848h-52.020038v53.754039h-27.74402v-53.754039h-55.560291v-27.744021h55.560291v-53.898539h27.74402v53.898539h52.020038v27.744021z" fill="#FFFFFF" p-id="1629"></path></svg>